<?xml version="1.0" standalone="no"?>
<!DOCTYPE svg PUBLIC "-//W3C//DTD SVG 20010904//EN"
 "http://www.w3.org/TR/2001/REC-SVG-20010904/DTD/svg10.dtd">
<svg version="1.0" xmlns="http://www.w3.org/2000/svg"
 width="207.000000pt" height="207.000000pt" viewBox="0 0 207.000000 207.000000"
 preserveAspectRatio="xMidYMid meet">
<metadata>
Created by potrace 1.11, written by Peter Selinger 2001-2013
</metadata>
<g transform="translate(0.000000,207.000000) scale(0.100000,-0.100000)"
fill="#000000" stroke="none">
<path d="M905 2058 c-402 -52 -747 -346 -859 -731 -33 -113 -44 -198 -40 -321
3 -120 6 -141 34 -242 74 -272 253 -499 502 -638 83 -46 224 -95 323 -112 65
-10 245 -13 305 -3 30 5 69 11 85 13 99 16 266 90 370 164 287 202 446 518
440 869 -4 181 -56 366 -142 501 -18 29 -33 55 -33 58 0 7 -91 114 -131 154
-51 51 -180 150 -195 150 -4 0 -15 6 -23 14 -24 20 -178 82 -246 100 -117 30
-272 39 -390 24z"/>
</g>
</svg>
